<?xml version="1.0" encoding="UTF-8"?>
<svg version="1.1" viewBox="0 0 236 55" xmlns="http://www.w3.org/2000/svg">
<title>Page 1</title>
<desc>Created with Sketch.</desc>
<g fill="none" fill-rule="evenodd">
<g fill="#000">
<path d="m214.89 2.5086c0 0.34048 0.005312 0.68245 0 1.0244-0.016315 1.0757-1.0089 1.6152-2.1046 1.1266-1.0525-0.47143-2.0838-0.98177-3.145-1.4397-0.20982-0.09017-0.55851-0.093537-0.76719-0.0033673-1.0426 0.44748-2.0572 0.94772-3.0892 1.4158-1.1622 0.52605-2.1581-0.004864-2.1692-1.1468-0.007209-0.69966-0.015556-1.4008 0.006071-2.1001 0.025801-0.98214 1.0051-1.5213 2.0113-1.0877 1.0605 0.45796 2.1054 0.9481 3.1348 1.4551 0.35021 0.17211 0.62301 0.16014 0.96032-0.0014966 1.0021-0.48003 2.0124-0.94622 3.0297-1.4008 1.1424-0.51034 2.1176 0.01534 2.1331 1.1352 0.005312 0.34048 0 0.68095 0 1.0229"/>
<path d="m226.4 52.381h6.8569l-2.1153-44.616-12.014-3.6577-8.8682 22.943c-0.19654 0.5081-0.69017 0.84333-1.2411 0.84333h-0.012141c-0.55547-0.0052381-1.0487-0.35058-1.2369-0.86578l-8.3727-22.912-11.909 3.6524-3.0069 44.612h6.8212l3.359-20.002c0.10889-0.64803 0.69738-1.1049 1.3545-1.0948 0.66626 0.022075 1.2126 0.52755 1.2771 1.1819l1.965 19.915h19.675l1.9104-19.904c0.063364-0.66037 0.61732-1.1696 1.2897-1.1857 0.68903-0.011224 1.251 0.46582 1.3469 1.1221l2.92 19.968zm8.2482 2.619h-9.3983c-0.66019 0-1.2202-0.47816-1.3143-1.1224l-1.4961-10.231-0.97625 10.168c-0.064502 0.67235-0.63667 1.1861-1.3219 1.1861h-22.089c-0.68372 0-1.2555-0.51184-1.3215-1.1827l-1.1026-11.171-1.8903 11.258c-0.10624 0.63194-0.66057 1.0955-1.3101 1.0955h-9.3668c-0.36728 0-0.71824-0.15003-0.96942-0.41456-0.25118-0.26452-0.3798-0.62034-0.35552-0.98177l3.1617-46.906c0.036424-0.5399 0.40636-1.0023 0.93072-1.1632l13.992-4.2915c0.67613-0.20803 1.4031 0.14741 1.6437 0.80667l7.5888 20.767 8.0358-20.79c0.24928-0.64541 0.96525-0.98888 1.6326-0.78497l14.095 4.2915c0.53498 0.16276 0.90909 0.63867 0.93489 1.1902l2.2234 46.905c0.017074 0.35731-0.11496 0.70639-0.36576 0.96493-0.2508 0.25891-0.59759 0.40558-0.9607 0.40558z"/>
<path d="m210.23 8.6209c0 0.47442-0.43785 0.85718-0.97625 0.85718-0.53916 0-0.97625-0.38276-0.97625-0.85718s0.43709-0.85942 0.97625-0.85942c0.5384 0 0.97625 0.385 0.97625 0.85942"/>
<path d="m210.23 13.682c0 0.47442-0.43785 0.85718-0.97625 0.85718-0.53916 0-0.97625-0.38276-0.97625-0.85718s0.43709-0.85942 0.97625-0.85942c0.5384 0 0.97625 0.385 0.97625 0.85942"/>
<path d="m2.9676 12.686c-1.6186 0-2.9675-1.2635-2.9675-2.9262 0-1.5961 1.3488-2.8596 2.9675-2.8596h29.539c1.6186 0 2.9675 1.2635 2.9675 2.8596 0 1.6627-1.3488 2.9262-2.9675 2.9262h-11.6v37.243c0 1.7293-1.3485 3.126-3.1697 3.126-1.7533 0-3.1025-1.3967-3.1025-3.126v-37.243h-11.667z"/>
<path d="m49.638 26.918c-5.6651 0-10.251 3.9903-10.251 10.175 0 6.1185 4.5861 10.375 10.251 10.375 5.5976 0 10.453-3.7905 10.453-10.375 0-6.6505-5.3954-10.175-10.453-10.175zm10.521 21.016c-2.0906 3.5249-6.6767 5.4536-11.061 5.4536-8.6326 0-15.984-6.3845-15.984-16.227 0-9.9094 7.3513-16.161 15.984-16.161 4.3838 0 8.9699 1.7955 11.061 5.3204v-1.9284c0-1.6627 1.3488-3.0594 3.035-3.0594 1.7533 0 3.1021 1.3967 3.1021 3.0594v25.604c0 1.6631-1.3488 3.0594-3.1021 3.0594-1.6861 0-3.035-1.3963-3.035-3.0594v-2.0616z"/>
<path d="m82.144 24.391c0-1.6627-1.3488-3.0594-3.1021-3.0594-1.6861 0-3.035 1.3967-3.035 3.0594v25.605c0 1.6627 1.3488 3.059 3.035 3.059 1.7533 0 3.1021-1.3963 3.1021-3.059v-25.605zm-3.1021-18.023c2.3604 0 4.2488 1.6623 4.2488 3.9237 0 2.261-1.8884 3.9237-4.2488 3.9237-2.2932 0-4.2491-1.6627-4.2491-3.9237 0-2.2614 1.9559-3.9237 4.2491-3.9237z"/>
<path d="m98.059 49.996c0 1.6627-1.3488 3.0594-3.1021 3.0594-1.6861 0-3.035-1.3967-3.035-3.0594v-42.497c0-1.6627 1.3488-3.0594 3.035-3.0594 1.7533 0 3.1021 1.3967 3.1021 3.0594v42.497z"/>
<path d="m132.86 37.094c0-6.2517-4.7208-10.175-10.386-10.175-5.6655 0-10.387 3.9237-10.387 10.175 0 6.3183 4.7211 10.441 10.387 10.441 5.6651 0 10.386-4.1231 10.386-10.441m-26.842 0c0-9.8428 7.486-16.094 16.456-16.094 8.9699 0 16.523 6.2517 16.523 16.094 0 9.8431-7.5531 16.294-16.523 16.294-8.9703 0-16.456-6.4507-16.456-16.294"/>
<path d="m161.66 26.785c-6.07 0-8.6326 6.3845-8.6326 14.631v8.5793c0 1.6627-1.3492 3.0594-3.1025 3.0594-1.6861 0-3.035-1.3967-3.035-3.0594v-25.605c0-1.6627 1.3488-3.0594 3.035-3.0594 1.7533 0 3.1025 1.3967 3.1025 3.0594v4.2563c1.6186-5.4536 4.6536-7.648 8.7673-7.648 2.2928 0 6.07 0.46544 5.5304 3.7243-0.33731 1.9287-2.091 2.3276-4.2491 2.1282-0.472-0.066599-1.0115-0.066599-1.416-0.066599"/>
<path d="m207.98 27.394l-13.295-16.656c-0.34034-0.42578-0.37866-1.0147-0.097511-1.4801l4.4912-7.4347 2.2818 1.3402-4.0245 6.6617 12.73 15.949-2.0868 1.6201z"/>
<path d="m210.14 27.394l-2.0868-1.6201 12.73-15.949-4.0245-6.6617 2.2818-1.3402 4.4912 7.4347c0.28115 0.46544 0.24283 1.0544-0.097511 1.4801l-13.294 16.656z"/>
</g>
</g>
</svg>
